<?xml version="1.0" encoding="UTF-8" standalone="no" ?>
<!DOCTYPE svg PUBLIC "-//W3C//DTD SVG 1.1//EN" "http://www.w3.org/Graphics/SVG/1.1/DTD/svg11.dtd">
<svg xmlns="http://www.w3.org/2000/svg" xmlns:xlink="http://www.w3.org/1999/xlink" version="1.1" width="128" height="128" viewBox="0 0 500 500" xml:space="preserve">
<desc>Created with Fabric.js 5.3.0</desc>
<defs>
</defs>
<g transform="matrix(1 0 0 1 250.000004665 250.000004665)" id="-zWapXPzMrTO2ox8La_bi"  >
<path style="stroke: rgb(20,171,153); stroke-width: 0; stroke-dasharray: none; stroke-linecap: butt; stroke-dashoffset: 0; stroke-linejoin: miter; stroke-miterlimit: 4; fill: rgb(23,28,143); fill-rule: nonzero; opacity: 1;"  transform=" translate(-245.94397, -245.94397)" d="M 245.94397 0 C 381.70504 0 491.88794 110.1829 491.88794 245.94397 C 491.88794 381.70504 381.70504 491.88794 245.94397 491.88794 C 110.18290000000002 491.88794 0 381.70504 0 245.94397 C 0 110.18290000000002 110.1829 0 245.94397 0 z M 117.83527 133.56585 C 117.83527 151.81191 132.64367 166.62031000000002 150.88973 166.62031000000002 C 169.13579 166.62031000000002 183.94419 151.81191 183.94419 133.56585 C 183.94419 115.31979000000001 169.13579 100.51139 150.88973 100.51139 C 132.64367 100.51139 117.83526999999998 115.31979000000001 117.83526999999998 133.56585 z M 125.10083 366.83734 L 179.17485 366.83734 L 179.17485 188.55076999999997 L 125.10083 188.55076999999997 z M 212.87861 366.83733 L 266.95263 366.83733 L 266.95263 273.36438 C 267.55338 263.65011 270.08153 249.41499 279.17485 241.15277999999998 C 293.93675 227.74007999999998 313.74584 233.67172999999997 321.39707 241.15277999999998 C 329.0483 248.63382 329.54522 265.59722 329.54522 265.59722 L 329.54522 366.83732 L 385.10078 366.83732 C 385.10078 366.83732 387.45527999999996 253.44113 383.67221 233.46758999999997 C 379.88914 213.49404999999996 363.6193 182.63425999999998 321.39708 182.63425999999998 C 288.98398000000003 182.63425999999998 272.7474 203.51028 266.95263 213.21016999999998 L 266.95263 188.55076999999997 L 212.87861 188.55076999999997 z" stroke-linecap="round" />
</g>
</svg>