<?xml version="1.0" encoding="UTF-8" standalone="no" ?>
<!DOCTYPE svg PUBLIC "-//W3C//DTD SVG 1.1//EN" "http://www.w3.org/Graphics/SVG/1.1/DTD/svg11.dtd">
<svg xmlns="http://www.w3.org/2000/svg" xmlns:xlink="http://www.w3.org/1999/xlink" version="1.1" width="128" height="128" viewBox="0 0 500 500" xml:space="preserve">
<desc>Created with Fabric.js 5.3.0</desc>
<defs>
</defs>
<g transform="matrix(1 0 0 1 249.7661656614 250.2470775283)" id="-rA7CkPRPkVDehLAbcKr7"  >
<path style="stroke: rgb(49,168,247); stroke-width: 0; stroke-dasharray: none; stroke-linecap: butt; stroke-dashoffset: 0; stroke-linejoin: miter; stroke-miterlimit: 4; fill: rgb(23,28,143); fill-rule: nonzero; opacity: 1;"  transform=" translate(-244.14113, -244.14113)" d="M 244.14113 0 C 378.90702999999996 0 488.28226 109.37523 488.28226 244.14113 C 488.28226 378.90702999999996 378.90703 488.28226 244.14113 488.28226 C 109.37523000000002 488.28226 0 378.90703 0 244.14113 C 0 109.37523000000002 109.37523 0 244.14113 0 z M 107.3845 141.91226 L 107.3845 345.87583 C 107.3845 364.90228 123.36672 380.8845 142.39317 380.8845 L 346.35674 380.8845 C 365.38319 380.8845 381.36541 364.90228 381.36541 345.87583 L 381.36541 141.91226 C 381.36541 122.88581 365.38319 106.90359000000001 346.35674 106.90359000000001 L 142.39317 106.90359000000001 C 123.36672 106.90359000000001 107.3845 122.88581 107.3845 141.91226 z M 337.98511 137.34591 C 344.83463 137.34591 350.16204000000005 142.67332 350.16204000000005 149.52284 L 350.16204000000005 179.20411000000001 C 350.16204000000005 186.05363000000003 344.83463000000006 191.38104 337.98511 191.38104 L 306.78173000000004 191.38104 C 299.93221000000005 191.38104 294.6048 186.05363 294.6048 179.20411000000001 L 294.6048 149.52284 C 294.6048 142.67332 299.93221 137.34591 306.78173000000004 137.34591 z M 350.16203 222.58442 L 350.16203 338.26525 C 350.16203 344.35371 345.59568 348.92006 339.50722 348.92006 L 148.48163000000002 348.92006 C 142.39317000000003 348.92006 137.82682000000003 344.35371 137.82682000000003 338.26525 L 137.82682000000003 222.58441999999997 L 162.94174000000004 222.58441999999997 C 160.65857000000003 230.19499999999996 159.13645000000002 237.80557999999996 159.13645000000002 246.17721999999998 C 159.13645000000002 291.07964999999996 197.18936000000002 328.37149999999997 244.37496000000004 328.37149999999997 C 291.56056000000007 328.37149999999997 329.61347000000006 291.84070999999994 329.61347000000006 246.17721999999998 C 329.61347000000006 237.80557999999996 328.0913500000001 230.19499999999996 325.80818000000005 222.58441999999997 z M 299.17114 243.13299 C 299.17114 272.81426 274.81728 296.40706 244.37496 296.40706 C 213.93264 296.40706 189.57878 272.81426 189.57878 243.13299 C 189.57878 213.45172 213.93264 189.85892 244.37496 189.85892 C 274.81728 189.85892 299.93219999999997 214.21278 299.17114 243.13299 z" stroke-linecap="round" />
</g>
</svg>